<svg version="1.1" xmlns="http://www.w3.org/2000/svg" xmlns:xlink="http://www.w3.org/1999/xlink" width="90.9082" height="55.64684" viewBox="0,0,90.9082,55.64684"><g transform="translate(-194.5459,-152.17658)"><g data-paper-data="{&quot;isPaintingLayer&quot;:true}" fill-rule="nonzero" stroke-linecap="butt" stroke-linejoin="miter" stroke-miterlimit="10" stroke-dasharray="" stroke-dashoffset="0" style="mix-blend-mode: normal"><path d="M194.5459,207.82342v-55.64684h90.9082v55.64684z" fill="none" stroke="none" stroke-width="0"/><g><g stroke="none" stroke-width="0"><path d="M252.79267,193.09417l-0.62415,-4.99326l-2.49407,-4.57818l9.90551,-11.05644l6.32002,8.56084l2.18455,11.75496z" fill="#ff0000"/><path d="M238.33304,164.90307l9.67443,0.72818l11.57249,6.83503l-9.90551,11.05644l-4.26764,-4.16002l-7.07378,-2.49663z" fill="#ff9400"/><path d="M238.33305,176.86608l-7.07378,0.83221l-5.4068,2.4956l-7.05077,-5.95916l8.92067,-6.62698l10.61067,-2.70468z" fill="#fff700"/><path d="M211.91039,192.36599l1.76845,-8.84223l5.22689,-9.39305l7.05077,5.95916c0,0 -1.08077,1.65635 -2.32042,2.99871c-1.12225,1.21523 -1.84319,2.82779 -1.84319,2.82779l-1.35234,6.44962z" fill="#29cc00"/></g><path d="M212.28165,192.60994c0,-15.41094 12.49304,-27.90398 27.90398,-27.90398c15.41094,0 27.90398,12.49304 27.90398,27.90398c0,0.26924 -6.6013,0.45533 -15.26317,0.54852c-0.01808,-8.95922 -7.28651,-16.2165 -16.24997,-16.2165c-8.93406,0 -16.18419,7.20975 -16.24955,16.1284c-4.855,-0.10178 -8.04527,-0.25416 -8.04527,-0.46042z" fill="none" stroke="#000000" stroke-width="2"/></g><path d="M234.64752,187.77279c3.11075,-2.03252 16.85698,-8.15553 17.88763,-6.57812c1.18459,1.813 -10.39889,11.76948 -13.45842,13.76854c-1.62597,1.06239 -4.2034,-0.6712 -4.97807,-1.85683c-0.76441,-1.16992 -1.24472,-4.16169 0.54886,-5.33359z" fill="#adadad" stroke="#000000" stroke-width="2"/></g></g></svg>